<svg xmlns="http://www.w3.org/2000/svg" width="1200" height="630" viewBox="0 0 1200 630">
  <!-- CodeCela · Imagen Open Graph (1200x630) · reemplaza por og-codecela.png para maxima compatibilidad -->
  <defs>
    <linearGradient id="bg6" x1="0" y1="0" x2="1" y2="1">
      <stop offset="0" stop-color="#0F1B3D"/>
      <stop offset="1" stop-color="#0A1128"/>
    </linearGradient>
    <radialGradient id="glow6" cx="0.8" cy="0.25" r="0.7">
      <stop offset="0" stop-color="#00D4FF" stop-opacity="0.3"/>
      <stop offset="1" stop-color="#00D4FF" stop-opacity="0"/>
    </radialGradient>
  </defs>
  <rect width="1200" height="630" fill="url(#bg6)"/>
  <rect width="1200" height="630" fill="url(#glow6)"/>
  <g stroke="#16264F" stroke-width="1">
    <path d="M0 105 H1200 M0 210 H1200 M0 315 H1200 M0 420 H1200 M0 525 H1200"/>
    <path d="M150 0 V630 M300 0 V630 M450 0 V630 M600 0 V630 M750 0 V630 M900 0 V630 M1050 0 V630"/>
  </g>
  <rect x="48" y="44" width="1104" height="542" rx="20" fill="none" stroke="#2A3A63" stroke-dasharray="10 12" stroke-width="2"/>
  <path d="M80 250 L110 300 L80 350" fill="none" stroke="#00D4FF" stroke-width="12" stroke-linecap="round" stroke-linejoin="round"/>
  <path d="M120 360 L150 240" fill="none" stroke="#3DFFA2" stroke-width="12" stroke-linecap="round"/>
  <path d="M200 250 L170 300 L200 350" fill="none" stroke="#00D4FF" stroke-width="12" stroke-linecap="round" stroke-linejoin="round"/>
  <text x="240" y="320" font-family="monospace" font-size="72" font-weight="bold" fill="#F2F6FF">CodeCela</text>
  <text x="240" y="370" font-family="monospace" font-size="34" fill="#00D4FF">Tu negocio, compilado en codigo.</text>
  <text x="240" y="412" font-family="monospace" font-size="24" fill="#8FA3C7">Sitios web para negocios de Celaya, Gto.</text>
  <text x="600" y="560" text-anchor="middle" font-family="monospace" font-size="18" fill="#8FA3C7">codecela.vercel.app</text>
</svg>